<svg width="24" height="24" viewBox="0 0 24 24" fill="none" xmlns="http://www.w3.org/2000/svg">
<path fill-rule="evenodd" clip-rule="evenodd" d="M19.5 4H4.5C3.67157 4 3 4.67157 3 5.5V18.5C3 19.3284 3.67157 20 4.5 20H19.5C20.3284 20 21 19.3284 21 18.5V5.5C21 4.67157 20.3284 4 19.5 4ZM4.5 2.5C2.84315 2.5 1.5 3.84315 1.5 5.5V18.5C1.5 20.1569 2.84315 21.5 4.5 21.5H19.5C21.1569 21.5 22.5 20.1569 22.5 18.5V5.5C22.5 3.84315 21.1569 2.5 19.5 2.5H4.5ZM6.99459 12.75C7.40879 12.747 7.74699 13.0804 7.74998 13.4946L7.76213 15.1772L9.96967 12.9697C10.2626 12.6768 10.7374 12.6768 11.0303 12.9697C11.3232 13.2626 11.3232 13.7374 11.0303 14.0303L8.8228 16.2379L10.5054 16.25C10.9196 16.253 11.253 16.5912 11.25 17.0054C11.247 17.4196 10.9088 17.753 10.4946 17.75L7.01967 17.7249C6.60969 17.7219 6.27807 17.3903 6.27511 16.9803L6.25002 13.5054C6.24703 13.0912 6.58038 12.753 6.99459 12.75ZM13.5 6.25C13.0858 6.25 12.75 6.58579 12.75 7C12.75 7.41421 13.0858 7.75 13.5 7.75H15.2003L12.971 9.96837C12.6774 10.2605 12.6762 10.7354 12.9684 11.029C13.2605 11.3226 13.7354 11.3238 14.029 11.0316L16.256 8.81557L16.25 10.4973C16.2485 10.9116 16.5831 11.2485 16.9973 11.25C17.4115 11.2515 17.7485 10.9169 17.75 10.5027L17.7625 7.00268C17.7632 6.80331 17.6845 6.61185 17.5438 6.47062C17.4031 6.32939 17.2119 6.25 17.0125 6.25H13.5Z" fill="#333333"/>
</svg>
