<svg width="24" height="24" viewBox="0 0 24 24" fill="none" xmlns="http://www.w3.org/2000/svg">
<g clip-path="url(#clip0_257_45)">
<path fill-rule="evenodd" clip-rule="evenodd" d="M4.58583 16.9006L4.69362 16.3791L4.4485 15.9064C3.84285 14.7384 3.5 13.4114 3.5 12C3.5 7.30558 7.30558 3.5 12 3.5C16.6944 3.5 20.5 7.30558 20.5 12C20.5 16.6944 16.6944 20.5 12 20.5C10.5934 20.5 9.27062 20.1595 8.10554 19.5577L7.635 19.3146L7.11616 19.4209L3.92993 20.0736L4.58583 16.9006ZM3.48729 21.6954L7.41716 20.8904C8.79004 21.5995 10.3483 22 12 22C17.5228 22 22 17.5228 22 12C22 6.47715 17.5228 2 12 2C6.47715 2 2 6.47715 2 12C2 13.6574 2.40321 15.2206 3.11688 16.5969L2.30733 20.5133C2.16191 21.2167 2.78356 21.8395 3.48729 21.6954ZM12.224 14.144C12.384 14 12.464 13.824 12.464 13.616V13.04C12.464 12.832 12.552 12.64 12.728 12.464C12.92 12.272 13.144 12.08 13.4 11.888C13.768 11.616 14.096 11.296 14.384 10.928C14.688 10.56 14.84 10.04 14.84 9.368C14.84 8.648 14.56 8.064 14 7.616C13.44 7.152 12.736 6.92 11.888 6.92C11.376 6.92 10.904 7.024 10.472 7.232C10.056 7.44 9.72 7.72 9.464 8.072C9.208 8.408 9.08 8.784 9.08 9.2C9.08 9.408 9.16 9.592 9.32 9.752C9.496 9.912 9.688 9.992 9.896 9.992C10.104 9.992 10.28 9.928 10.424 9.8C10.584 9.656 10.672 9.496 10.688 9.32C10.72 9 10.84 8.752 11.048 8.576C11.256 8.4 11.536 8.312 11.888 8.312C12.304 8.312 12.632 8.424 12.872 8.648C13.128 8.856 13.256 9.136 13.256 9.488C13.256 9.856 13.136 10.176 12.896 10.448C12.672 10.704 12.424 10.936 12.152 11.144C11.864 11.368 11.576 11.624 11.288 11.912C11.016 12.2 10.88 12.576 10.88 13.04V13.616C10.88 13.824 10.952 14 11.096 14.144C11.256 14.288 11.448 14.36 11.672 14.36C11.896 14.36 12.08 14.288 12.224 14.144ZM11.072 17.048C11.296 17.256 11.56 17.36 11.864 17.36C12.152 17.36 12.4 17.256 12.608 17.048C12.816 16.856 12.92 16.624 12.92 16.352C12.92 16.064 12.816 15.824 12.608 15.632C12.4 15.424 12.152 15.32 11.864 15.32C11.56 15.32 11.296 15.424 11.072 15.632C10.864 15.824 10.76 16.064 10.76 16.352C10.76 16.624 10.864 16.856 11.072 17.048Z" fill="#333333"/>
<circle cx="20" cy="19" r="4" fill="#27AE60" stroke="white" stroke-width="2"/>
</g>
<defs>
<clipPath id="clip0_257_45">
<rect width="24" height="24" fill="white"/>
</clipPath>
</defs>
</svg>
