<svg width="24" height="24" viewBox="0 0 24 24" fill="none" xmlns="http://www.w3.org/2000/svg">
<g clip-path="url(#clip0_652_133)">
<path fill-rule="evenodd" clip-rule="evenodd" d="M16.617 5.6967C19.546 8.62563 19.546 13.3744 16.617 16.3033C13.6881 19.2322 8.93937 19.2322 6.01044 16.3033C3.0815 13.3744 3.0815 8.62563 6.01044 5.6967C8.93937 2.76777 13.6881 2.76777 16.617 5.6967ZM18.1891 16.8085C21.1832 13.2724 21.0128 7.9711 17.6777 4.63604C14.163 1.12132 8.4645 1.12132 4.94978 4.63604C1.43506 8.15076 1.43506 13.8492 4.94978 17.364C8.28697 20.7012 13.5929 20.8697 17.129 17.8696L21.2751 22.0157C21.568 22.3086 22.0429 22.3086 22.3358 22.0157C22.6286 21.7228 22.6286 21.2479 22.3357 20.955L18.1891 16.8085ZM7.56384 11C7.56384 10.5858 7.89963 10.25 8.31384 10.25L10.5638 10.25L10.5638 8C10.5638 7.58579 10.8996 7.25 11.3138 7.25C11.7281 7.25 12.0638 7.58579 12.0638 8V10.25H14.3138C14.7281 10.25 15.0638 10.5858 15.0638 11C15.0638 11.4142 14.7281 11.75 14.3138 11.75H12.0638L12.0638 14C12.0638 14.4142 11.7281 14.75 11.3138 14.75C10.8996 14.75 10.5638 14.4142 10.5638 14V11.75L8.31384 11.75C7.89963 11.75 7.56384 11.4142 7.56384 11Z" fill="#333333"/>
</g>
<defs>
<clipPath id="clip0_652_133">
<rect width="24" height="24" fill="white"/>
</clipPath>
</defs>
</svg>
