<svg width="24" height="24" viewBox="0 0 24 24" fill="none" xmlns="http://www.w3.org/2000/svg">
<g clip-path="url(#clip0_652_134)">
<path fill-rule="evenodd" clip-rule="evenodd" d="M16.617 16.3033C19.546 13.3744 19.546 8.62563 16.617 5.6967C13.6881 2.76777 8.93937 2.76777 6.01044 5.6967C3.0815 8.62563 3.0815 13.3744 6.01044 16.3033C8.93937 19.2322 13.6881 19.2322 16.617 16.3033ZM17.6777 4.63604C21.0128 7.9711 21.1832 13.2724 18.1891 16.8084L22.3357 20.955C22.6286 21.2479 22.6286 21.7228 22.3358 22.0157C22.0429 22.3086 21.568 22.3086 21.2751 22.0157L17.129 17.8696C13.5929 20.8697 8.28697 20.7012 4.94978 17.364C1.43506 13.8492 1.43506 8.15076 4.94978 4.63604C8.4645 1.12132 14.163 1.12132 17.6777 4.63604ZM8.31384 10.25C7.89963 10.25 7.56384 10.5858 7.56384 11C7.56384 11.4142 7.89963 11.75 8.31384 11.75H14.3138C14.7281 11.75 15.0638 11.4142 15.0638 11C15.0638 10.5858 14.7281 10.25 14.3138 10.25H8.31384Z" fill="#333333"/>
</g>
<defs>
<clipPath id="clip0_652_134">
<rect width="24" height="24" fill="white"/>
</clipPath>
</defs>
</svg>
